<svg width="56" height="56" viewBox="0 0 56 56" fill="none" xmlns="http://www.w3.org/2000/svg">
<rect x="1" y="1" width="54" height="54" rx="27" fill="url(#paint0_linear_3_1318)"/>
<rect x="1" y="1" width="54" height="54" rx="27" stroke="url(#paint1_linear_3_1318)" stroke-width="2"/>
<g clip-path="url(#clip0_3_1318)">
<path d="M28.3757 23.8688C28.3757 21.8092 28.3757 19.7983 28.3757 17.7955C28.4001 17.7712 28.4244 17.7387 28.4406 17.7387C29.5839 17.7469 30.7353 17.6982 31.8705 17.7874C33.3138 17.909 34.4247 19.1983 34.4815 20.674C34.5382 22.1174 33.5247 23.4958 32.1219 23.7472C31.4408 23.8688 30.7272 23.8364 30.0299 23.8526C29.4947 23.885 28.9595 23.8688 28.3757 23.8688Z" fill="white"/>
<path d="M27.2725 17.7307C27.2725 19.7903 27.2725 21.8012 27.2725 23.877C27.086 23.877 26.9076 23.877 26.7292 23.877C25.9346 23.877 25.1319 23.877 24.3372 23.877C22.5533 23.8689 21.183 22.5553 21.1424 20.8363C21.11 19.1983 22.4155 17.8199 24.1426 17.7388C25.1643 17.6901 26.1941 17.7307 27.2725 17.7307Z" fill="white"/>
<path d="M27.2645 24.9634C27.2645 27.0149 27.2645 29.0177 27.2645 31.134C25.9428 31.0692 24.6211 31.1178 23.3481 30.8989C21.9534 30.6556 21.0533 29.2528 21.1588 27.8501C21.2723 26.2851 22.3507 25.1013 23.8427 24.9796C24.9698 24.8904 26.105 24.9634 27.2645 24.9634Z" fill="white"/>
<path d="M27.3297 32.1395C27.2891 33.4125 27.3378 34.6531 27.1837 35.8532C26.9972 37.2722 25.5863 38.3263 24.1673 38.2776C22.6429 38.229 21.3942 37.1181 21.1996 35.6342C20.9482 33.7693 22.351 32.1476 24.2322 32.1313C25.2296 32.1395 26.2269 32.1395 27.3297 32.1395Z" fill="white"/>
<path d="M31.408 31.0691C29.7214 31.061 28.3511 29.6744 28.3592 27.9878C28.3673 26.3093 29.7538 24.9309 31.4404 24.939C33.127 24.9471 34.4974 26.3337 34.4892 28.0203C34.4811 29.7068 33.0946 31.0772 31.408 31.0691Z" fill="white"/>
</g>
<defs>
<linearGradient id="paint0_linear_3_1318" x1="28" y1="2" x2="28" y2="54" gradientUnits="userSpaceOnUse">
<stop stop-color="#1A1A1A"/>
<stop offset="1" stop-color="#1A1A1A" stop-opacity="0"/>
</linearGradient>
<linearGradient id="paint1_linear_3_1318" x1="28" y1="2" x2="28" y2="54" gradientUnits="userSpaceOnUse">
<stop stop-color="#333333"/>
<stop offset="0.84964" stop-color="#333333" stop-opacity="0"/>
</linearGradient>
<clipPath id="clip0_3_1318">
<rect width="13.3467" height="20.5714" fill="white" transform="translate(21.1428 17.7144)"/>
</clipPath>
</defs>
</svg>
