<svg width="56" height="56" viewBox="0 0 56 56" fill="none" xmlns="http://www.w3.org/2000/svg">
<rect x="1" y="1" width="54" height="54" rx="27" fill="url(#paint0_linear_3_1334)"/>
<rect x="1" y="1" width="54" height="54" rx="27" stroke="url(#paint1_linear_3_1334)" stroke-width="2"/>
<g clip-path="url(#clip0_3_1334)">
<path d="M16.8572 17.7144C23.753 17.7144 30.6101 17.7144 37.4866 17.7144C37.4222 18.5006 37.3577 19.2675 37.2868 20.0409C37.1902 21.1429 37.087 22.2385 36.9839 23.3406C36.8164 25.1257 36.6488 26.9109 36.4877 28.6897C36.3652 30.0237 36.2557 31.3642 36.1332 32.6982C36.0237 33.9163 35.9141 35.1343 35.8045 36.3524C35.7852 36.5393 35.7208 36.6166 35.5145 36.6617C32.8787 37.1837 30.2428 37.7187 27.6005 38.2407C27.3427 38.2922 27.0656 38.3051 26.8078 38.2536C24.391 37.7767 21.9743 37.2869 19.5575 36.7971C19.3126 36.7455 19.0741 36.6811 18.8293 36.6617C18.6037 36.6424 18.5392 36.5393 18.5199 36.3395C18.391 34.8314 18.2621 33.3234 18.1268 31.8218C17.9399 29.7917 17.7465 27.7616 17.5596 25.7315C17.4179 23.9464 17.2696 22.1547 17.115 20.376C17.0376 19.4995 16.9474 18.6231 16.8572 17.7144ZM31.2997 28.8637C31.1902 30.043 31.087 31.1709 30.9775 32.3051C30.0623 32.4856 29.1794 32.6596 28.3029 32.8465C28.2063 32.8658 28.0451 32.9496 28.0451 33.014C28.0258 33.5425 28.0323 34.0774 28.0323 34.6445C29.579 34.3352 31.0741 34.0387 32.5758 33.7358C32.7755 31.5382 32.9753 29.3663 33.1751 27.1429C32.0086 27.1429 30.8873 27.1429 29.7788 27.1429C29.7788 25.6864 29.7788 24.275 29.7788 22.8379C31.0548 22.8379 32.3051 22.8379 33.5747 22.8379C33.6198 22.2579 33.6649 21.7101 33.7165 21.1494C31.8024 21.1494 29.9334 21.1494 28.0645 21.1494C28.0645 23.7272 28.0645 26.2858 28.0645 28.8637C29.1407 28.8637 30.2041 28.8637 31.2997 28.8637ZM24.5908 21.1429C24.5908 24.9582 24.5908 28.7348 24.5908 32.5436C24.1654 32.4598 23.7723 32.3825 23.3728 32.3051C23.3147 31.7251 23.2632 31.1709 23.2116 30.6037C22.6381 30.6037 22.0838 30.6037 21.4909 30.6037C21.5876 31.6542 21.6778 32.6854 21.7745 33.7358C23.2825 34.0387 24.7841 34.3352 26.2986 34.6381C26.2986 30.1204 26.2986 25.6349 26.2986 21.1429C25.7251 21.1429 25.1837 21.1429 24.5908 21.1429Z" fill="white"/>
</g>
<defs>
<linearGradient id="paint0_linear_3_1334" x1="28" y1="2" x2="28" y2="54" gradientUnits="userSpaceOnUse">
<stop stop-color="#1A1A1A"/>
<stop offset="1" stop-color="#1A1A1A" stop-opacity="0"/>
</linearGradient>
<linearGradient id="paint1_linear_3_1334" x1="28" y1="2" x2="28" y2="54" gradientUnits="userSpaceOnUse">
<stop stop-color="#333333"/>
<stop offset="0.84964" stop-color="#333333" stop-opacity="0"/>
</linearGradient>
<clipPath id="clip0_3_1334">
<rect width="20.6294" height="20.5714" fill="white" transform="translate(16.8572 17.7144)"/>
</clipPath>
</defs>
</svg>
