<svg width="56" height="56" viewBox="0 0 56 56" fill="none" xmlns="http://www.w3.org/2000/svg">
<rect x="1" y="1" width="54" height="54" rx="27" fill="url(#paint0_linear_3_1326)"/>
<rect x="1" y="1" width="54" height="54" rx="27" stroke="url(#paint1_linear_3_1326)" stroke-width="2"/>
<path d="M23.2748 19.5579C22.8984 19.7752 22.5023 20.3745 22.4564 21.6817C22.4345 22.3027 21.9134 22.7883 21.2925 22.7665C20.6716 22.7447 20.1859 22.2236 20.2077 21.6027C20.2641 20.0001 20.7709 18.4054 22.1498 17.6093C23.5327 16.8109 25.1723 17.1735 26.5919 17.9309C27.1401 18.2233 27.3474 18.9048 27.055 19.453C26.7625 20.0012 26.081 20.2085 25.5329 19.916C24.3727 19.2971 23.6524 19.3399 23.2748 19.5579ZM29.3071 21.5092C29.7855 21.1128 30.4947 21.1794 30.8911 21.6578C31.7227 22.6615 32.5204 23.806 33.2444 25.0602C34.8049 27.7628 35.767 30.5317 36.0263 32.8543C36.1558 34.0136 36.1162 35.1169 35.8454 36.0631C35.5726 37.0165 35.0412 37.8794 34.1499 38.3939C33.0715 39.0166 31.8263 38.9282 30.6867 38.5133C29.543 38.0969 28.3659 37.3084 27.2438 36.2842C26.7849 35.8652 26.7525 35.1536 27.1713 34.6948C27.5902 34.2359 28.3018 34.2034 28.7607 34.6223C29.7494 35.5247 30.6785 36.1157 31.4564 36.3991C32.2385 36.6838 32.7305 36.6154 33.0248 36.4454C33.2714 36.3031 33.5196 36.013 33.6823 35.444C33.8472 34.868 33.8992 34.0793 33.7903 33.1039C33.5728 31.1567 32.7386 28.6841 31.2959 26.1852C30.6324 25.0359 29.9062 23.9958 29.1585 23.0932C28.7621 22.6148 28.8286 21.9056 29.3071 21.5092Z" fill="white"/>
<path d="M37.75 28.3083C37.75 27.8736 37.429 27.2309 36.3199 26.5375C35.7931 26.2081 35.6331 25.514 35.9625 24.9872C36.2919 24.4604 36.9859 24.3003 37.5127 24.6297C38.8724 25.4798 40 26.716 40 28.3083C40 29.905 38.8663 31.1436 37.5006 31.9944C36.9732 32.3229 36.2792 32.1618 35.9507 31.6344C35.6222 31.107 35.7835 30.4132 36.3107 30.0847C37.4269 29.3894 37.75 28.7442 37.75 28.3083ZM33.0439 32.5566C33.148 33.1692 32.7358 33.7502 32.1232 33.8543C30.8383 34.0725 29.4482 34.191 28 34.191C24.8793 34.191 22.0003 33.6399 19.8593 32.7032C18.7905 32.2356 17.8549 31.6497 17.1708 30.9422C16.4815 30.2291 16 29.3374 16 28.3083C16 27.0631 16.6991 26.0289 17.6282 25.2494C18.5607 24.4672 19.8321 23.842 21.2802 23.3824C21.8724 23.1944 22.5049 23.5221 22.6928 24.1143C22.8808 24.7065 22.5531 25.3389 21.9609 25.5269C20.685 25.9319 19.7086 26.4411 19.0743 26.9732C18.4366 27.5082 18.25 27.9684 18.25 28.3083C18.25 28.5929 18.3771 28.9529 18.7884 29.3783C19.2049 29.8091 19.862 30.2485 20.7611 30.6419C22.5561 31.4271 25.1146 31.941 28 31.941C29.3271 31.941 30.591 31.8323 31.7464 31.6359C32.359 31.532 32.94 31.9442 33.0439 32.5566Z" fill="white"/>
<path d="M23.308 36.4454C23.6844 36.6627 24.4014 36.7061 25.5565 36.0923C26.1052 35.8007 26.7863 36.0092 27.0779 36.5577C27.3694 37.1064 27.161 37.7876 26.6123 38.0792C25.1963 38.8316 23.5619 39.1901 22.183 38.3939C20.8001 37.5956 20.2943 35.9943 20.2404 34.3862C20.2196 33.7652 20.7061 33.245 21.3271 33.2241C21.948 33.2033 22.4683 33.6897 22.4891 34.3107C22.5332 35.625 22.9304 36.2274 23.308 36.4454ZM21.9818 30.2456C21.3992 30.0294 21.1023 29.382 21.3184 28.7995C21.7719 27.5775 22.3642 26.3144 23.0883 25.0602C24.6487 22.3576 26.5655 20.1398 28.4472 18.754C29.3866 18.0622 30.3617 17.5449 31.3166 17.3063C32.2787 17.0658 33.2918 17.0947 34.1829 17.6093C35.2613 18.2318 35.8074 19.3544 36.0179 20.5488C36.2291 21.7474 36.1349 23.161 35.8088 24.645C35.6754 25.2518 35.0754 25.6357 34.4687 25.5024C33.8618 25.3691 33.4779 24.7691 33.6113 24.1622C33.8984 22.8548 33.9456 21.7546 33.8021 20.9392C33.6576 20.1195 33.3522 19.7278 33.0579 19.5578C32.8115 19.4155 32.4362 19.3456 31.8621 19.4891C31.2807 19.6344 30.5717 19.9837 29.7814 20.5657C28.2038 21.7276 26.4796 23.6863 25.0369 26.1852C24.3733 27.3345 23.8356 28.4834 23.4279 29.5823C23.2117 30.1648 22.5643 30.4617 21.9818 30.2456Z" fill="white"/>
<path d="M30.189 28.0994C30.189 29.2255 29.276 30.1384 28.1499 30.1384C27.0238 30.1384 26.1108 29.2255 26.1108 28.0994C26.1108 26.9732 27.0238 26.0603 28.1499 26.0603C29.276 26.0603 30.189 26.9732 30.189 28.0994Z" fill="white"/>
<defs>
<linearGradient id="paint0_linear_3_1326" x1="28" y1="2" x2="28" y2="54" gradientUnits="userSpaceOnUse">
<stop stop-color="#1A1A1A"/>
<stop offset="1" stop-color="#1A1A1A" stop-opacity="0"/>
</linearGradient>
<linearGradient id="paint1_linear_3_1326" x1="28" y1="2" x2="28" y2="54" gradientUnits="userSpaceOnUse">
<stop stop-color="#333333"/>
<stop offset="0.84964" stop-color="#333333" stop-opacity="0"/>
</linearGradient>
</defs>
</svg>
