<svg width="75" height="74" viewBox="0 0 75 74" fill="none" xmlns="http://www.w3.org/2000/svg">
<rect x="1" y="0.5" width="73" height="73" rx="36.5" fill="url(#paint0_linear_147_5598)"/>
<rect x="1" y="0.5" width="73" height="73" rx="36.5" stroke="url(#paint1_linear_147_5598)"/>
<path fill-rule="evenodd" clip-rule="evenodd" d="M38.2306 23.0738C37.8208 22.6857 37.1792 22.6857 36.7694 23.0738C33.9123 25.7796 30.0572 27.4375 25.8125 27.4375C25.745 27.4375 25.6775 27.4371 25.6102 27.4363C25.1464 27.4305 24.7325 27.7262 24.5877 28.1668C24.0032 29.9444 23.6875 31.8427 23.6875 33.8126C23.6875 42.2304 29.4449 49.3009 37.2352 51.306C37.4089 51.3507 37.5911 51.3507 37.7648 51.306C45.5551 49.3009 51.3125 42.2304 51.3125 33.8126C51.3125 31.8427 50.9968 29.9444 50.4123 28.1668C50.2675 27.7262 49.8536 27.4305 49.3898 27.4363C49.3225 27.4371 49.255 27.4375 49.1875 27.4375C44.9428 27.4375 41.0877 25.7796 38.2306 23.0738ZM42.6146 34.4299C42.9557 33.9524 42.8451 33.2889 42.3676 32.9478C41.8901 32.6067 41.2265 32.7173 40.8854 33.1948L36.3019 39.6117L34.0013 37.3111C33.5864 36.8961 32.9136 36.8961 32.4987 37.3111C32.0838 37.726 32.0838 38.3987 32.4987 38.8137L35.6862 42.0012C35.907 42.222 36.2139 42.3345 36.5251 42.3088C36.8364 42.283 37.1206 42.1216 37.3021 41.8674L42.6146 34.4299Z" fill="white"/>
<defs>
<linearGradient id="paint0_linear_147_5598" x1="37.5" y1="0" x2="37.5" y2="74" gradientUnits="userSpaceOnUse">
<stop stop-color="#1A1A1A"/>
<stop offset="1" stop-color="#1A1A1A" stop-opacity="0"/>
</linearGradient>
<linearGradient id="paint1_linear_147_5598" x1="37.5" y1="0" x2="37.5" y2="74" gradientUnits="userSpaceOnUse">
<stop stop-color="#262626"/>
<stop offset="1" stop-color="#262626" stop-opacity="0"/>
</linearGradient>
</defs>
</svg>
