<svg width="56" height="56" viewBox="0 0 56 56" fill="none" xmlns="http://www.w3.org/2000/svg">
<rect x="1" y="1" width="54" height="54" rx="27" fill="url(#paint0_linear_3_1330)"/>
<rect x="1" y="1" width="54" height="54" rx="27" stroke="url(#paint1_linear_3_1330)" stroke-width="2"/>
<g clip-path="url(#clip0_3_1330)">
<path d="M16 18.625C16 17.1753 17.1753 16 18.625 16H37.375C38.8247 16 40 17.1753 40 18.625V21.625C40 22.2463 39.4963 22.75 38.875 22.75C38.2537 22.75 37.75 22.2463 37.75 21.625V18.625C37.75 18.4179 37.5821 18.25 37.375 18.25H18.625C18.4179 18.25 18.25 18.4179 18.25 18.625V37.375C18.25 37.5821 18.4179 37.75 18.625 37.75H38.875C39.4963 37.75 40 38.2537 40 38.875C40 39.4963 39.4963 40 38.875 40H18.625C17.1753 40 16 38.8247 16 37.375V18.625ZM23.125 25.75C23.125 25.1287 23.6287 24.625 24.25 24.625H29.875C30.4963 24.625 31 25.1287 31 25.75C31 26.3713 30.4963 26.875 29.875 26.875H28.375V34.75C28.375 35.3713 27.8713 35.875 27.25 35.875C26.6287 35.875 26.125 35.3713 26.125 34.75V26.875H24.25C23.6287 26.875 23.125 26.3713 23.125 25.75ZM32.9135 25.8702C33.5416 25.1225 34.5261 24.625 35.875 24.625C37.1274 24.625 38.0722 25.0535 38.7091 25.7272C39.1358 26.1787 39.1157 26.8908 38.6642 27.3176C38.2127 27.7444 37.5007 27.7243 37.074 27.2728C36.9091 27.0985 36.5806 26.875 35.875 26.875C35.124 26.875 34.7959 27.1275 34.6365 27.3173C34.4401 27.551 34.375 27.844 34.375 28C34.375 28.156 34.4401 28.449 34.6365 28.6827C34.7959 28.8725 35.124 29.125 35.875 29.125C35.9885 29.125 36.0982 29.1418 36.2014 29.1731C37.196 29.3147 37.9479 29.7588 38.4615 30.3702C39.0526 31.0739 39.25 31.906 39.25 32.5C39.25 33.094 39.0526 33.926 38.4615 34.6298C37.8334 35.3776 36.8489 35.875 35.5 35.875C34.2476 35.875 33.3028 35.4464 32.6659 34.7728C32.2392 34.3213 32.2593 33.6092 32.7108 33.1823C33.1623 32.7556 33.8743 32.7757 34.301 33.2272C34.4659 33.4015 34.7944 33.625 35.5 33.625C36.251 33.625 36.5791 33.3724 36.7385 33.1827C36.9349 32.949 37 32.656 37 32.5C37 32.344 36.9349 32.051 36.7385 31.8173C36.5791 31.6276 36.251 31.375 35.5 31.375C35.3865 31.375 35.2768 31.3582 35.1736 31.3269C34.179 31.1853 33.4271 30.7412 32.9135 30.1298C32.3224 29.426 32.125 28.594 32.125 28C32.125 27.406 32.3224 26.574 32.9135 25.8702Z" fill="white"/>
</g>
<defs>
<linearGradient id="paint0_linear_3_1330" x1="28" y1="2" x2="28" y2="54" gradientUnits="userSpaceOnUse">
<stop stop-color="#1A1A1A"/>
<stop offset="1" stop-color="#1A1A1A" stop-opacity="0"/>
</linearGradient>
<linearGradient id="paint1_linear_3_1330" x1="28" y1="2" x2="28" y2="54" gradientUnits="userSpaceOnUse">
<stop stop-color="#333333"/>
<stop offset="0.84964" stop-color="#333333" stop-opacity="0"/>
</linearGradient>
<clipPath id="clip0_3_1330">
<rect width="24" height="24" fill="white" transform="translate(16 16)"/>
</clipPath>
</defs>
</svg>
