<svg width="157" height="57" viewBox="0 0 157 57" fill="none" xmlns="http://www.w3.org/2000/svg">
<path d="M0.535288 55.6738C1.58117 54.5391 2.5111 53.2617 3.69039 52.2912C20.0595 38.8194 37.5666 27.1012 56.6126 17.8142C59.7197 16.2993 62.9948 14.9856 66.3292 14.129C71.9057 12.6962 75.0974 15.9702 73.5476 21.6363C72.0338 27.1695 69.9077 32.5342 68.16 38.0077C67.303 40.6918 66.3264 43.4592 68.3264 46.7753C70.4324 46.1945 72.6352 45.8697 74.5933 44.9889C78.8792 43.0612 83.1787 41.0911 87.2285 38.7148C102.918 29.5091 118.512 20.1373 135.039 10.2927C127.592 8.79142 120.75 13.675 114.346 10.5449C114.261 10.0589 114.176 9.57262 114.092 9.08645C115.438 8.44436 116.725 7.49005 118.14 7.21003C128.75 5.11021 139.381 3.12035 150.017 1.1547C152.254 0.74121 154.973 0.382841 155.897 2.92013C156.485 4.53026 155.983 6.89529 155.228 8.59133C153.228 13.0823 150.842 17.4027 148.57 21.7697C148.003 22.8576 147.486 24.1289 146.579 24.8376C145.594 25.6063 144.179 25.8167 142.952 26.2705C142.519 25.0116 141.517 23.626 141.767 22.5193C142.346 19.9509 143.53 17.517 144.47 15.0288C144.806 14.1395 145.144 13.2511 145.993 11.0125C140.672 14.2943 136.552 16.8416 132.425 19.3794C118.817 27.7492 105.266 36.2174 91.5625 44.4254C87.0128 47.1505 82.1282 49.3441 77.275 51.5007C75.0689 52.481 72.5961 53.0598 70.1922 53.3319C64.7228 53.9512 60.8083 50.9218 60.8569 45.3893C60.8958 40.966 61.9958 36.4928 63.0461 32.1423C63.8926 28.6364 65.3688 25.281 67.0524 20.4668C63.3966 21.9211 60.9823 22.7682 58.6605 23.8232C43.5178 30.7039 29.4125 39.4179 15.6184 48.6827C12.2175 50.9669 8.77952 53.2043 5.26055 55.2955C4.02392 56.0306 2.49389 56.2634 1.09776 56.7256C0.910356 56.375 0.722805 56.0244 0.535288 55.6738Z" fill="url(#paint0_linear_1_4842)"/>
<defs>
<linearGradient id="paint0_linear_1_4842" x1="158" y1="1.00001" x2="2.07742e-06" y2="60" gradientUnits="userSpaceOnUse">
<stop stop-color="#38C8E5" stop-opacity="0.65"/>
<stop offset="0.651" stop-color="#2E81C4"/>
</linearGradient>
</defs>
</svg>
